<?xml version="1.0" standalone="no"?>
<!DOCTYPE svg PUBLIC "-//W3C//DTD SVG 20010904//EN"
 "http://www.w3.org/TR/2001/REC-SVG-20010904/DTD/svg10.dtd">
<svg version="1.0" xmlns="http://www.w3.org/2000/svg"
 width="260.000000pt" height="260.000000pt" viewBox="0 0 260.000000 260.000000"
 preserveAspectRatio="xMidYMid meet">
<metadata>
Created by potrace 1.15, written by Peter Selinger 2001-2017
</metadata>
<g transform="translate(0.000000,260.000000) scale(0.100000,-0.100000)"
fill="#000000" stroke="none">
<path d="M1129 2406 c-50 -18 -106 -54 -124 -79 -21 -30 -19 -105 3 -142 11
-16 42 -57 70 -90 56 -65 73 -100 62 -129 -5 -16 -16 -11 -81 45 -41 35 -80
70 -87 79 -24 28 -54 102 -49 121 8 31 -3 22 -19 -16 -20 -49 -18 -114 6 -155
53 -91 62 -120 49 -151 -15 -38 -58 -60 -117 -61 -90 -1 -143 42 -122 98 l10
29 -31 -34 c-28 -30 -31 -39 -26 -77 3 -26 15 -58 32 -80 15 -19 25 -37 22
-40 -2 -3 -30 5 -61 16 -96 36 -106 78 -45 181 41 71 47 115 21 165 l-21 39
-1 -33 c0 -44 -28 -94 -90 -167 -116 -136 -122 -225 -17 -285 l49 -28 -30 -7
c-21 -4 -45 0 -77 14 -36 16 -47 26 -51 51 -8 37 -21 39 -30 4 -11 -44 23
-100 106 -170 42 -35 87 -83 101 -107 22 -39 24 -51 21 -153 l-3 -111 35 -51
c38 -57 38 -59 -2 -38 -59 31 -102 103 -102 171 0 55 -19 118 -45 151 l-23 29
11 -41 c8 -31 7 -67 -3 -141 -12 -94 -12 -101 8 -139 13 -25 73 -88 156 -163
138 -125 179 -177 191 -243 6 -29 12 -38 27 -38 19 0 20 -5 16 -52 -3 -29 -14
-73 -26 -97 -26 -54 -26 -51 -5 -51 9 0 38 22 63 49 54 55 77 122 65 192 -5
31 -4 40 5 34 21 -13 52 -99 60 -169 6 -53 15 -77 39 -110 92 -122 111 -158
111 -203 0 -50 -20 -95 -52 -117 -43 -30 5 -16 61 18 95 58 122 143 81 261
-34 99 -28 110 45 76 48 -22 69 -44 90 -96 20 -46 36 -32 34 30 -3 101 7 107
91 49 28 -19 53 -34 55 -32 2 2 -2 22 -10 43 -16 46 -19 75 -6 75 5 0 34 -31
66 -70 64 -78 78 -119 69 -198 -5 -38 -2 -65 11 -97 20 -54 33 -58 27 -11 -2
21 8 74 28 136 38 120 37 154 -9 252 -23 49 -31 80 -31 122 0 31 4 56 8 56 5
0 17 -17 26 -39 17 -36 100 -111 125 -111 14 0 15 -1 -10 56 -53 120 -2 274
92 274 46 0 73 -34 65 -81 -3 -21 -3 -39 1 -39 12 0 62 65 73 95 23 61 1 135
-41 135 -27 0 -24 14 7 31 14 7 50 39 79 70 88 95 96 176 35 330 -41 104 -47
136 -30 157 5 7 0 3 -12 -7 -30 -28 -36 -112 -13 -210 17 -76 17 -77 -5 -129
-12 -28 -29 -57 -38 -64 -13 -11 -14 -10 -4 9 25 46 14 112 -33 213 -38 81
-46 111 -52 177 -4 53 -2 87 6 101 6 12 8 22 3 22 -10 0 -66 -58 -80 -85 -9
-16 -11 -5 -12 56 0 178 -54 304 -152 355 -42 22 -48 17 -32 -21 22 -52 18
-73 -18 -96 -47 -29 -114 -21 -145 18 -32 39 -31 95 2 121 14 11 25 22 25 25
0 3 -16 8 -35 11 -52 10 -112 -10 -161 -56 -25 -23 -44 -35 -44 -27 -1 20 -27
49 -85 92 -126 96 -186 181 -171 241 8 32 59 59 98 54 16 -3 25 -1 21 3 -16
16 -59 18 -94 5z m271 -486 c77 -8 109 -17 170 -47 99 -48 202 -151 249 -247
31 -63 34 -78 33 -150 -1 -52 -12 -125 -32 -204 -23 -94 -29 -136 -24 -175 6
-52 6 -53 -35 -90 -25 -23 -51 -37 -67 -37 -24 0 -26 2 -20 34 11 60 -35 82
-109 52 -31 -13 -34 -18 -29 -43 3 -18 -3 -49 -16 -83 -18 -45 -24 -85 -30
-224 -8 -182 -12 -196 -66 -196 l-23 0 3 148 c2 81 4 170 5 199 1 33 7 57 18
68 14 14 14 18 2 26 -36 23 -40 9 -45 -186 -6 -222 -11 -260 -39 -260 -19 0
-20 9 -23 218 -1 133 -6 217 -12 217 -6 0 -10 -55 -10 -138 0 -77 -3 -173 -6
-215 -7 -75 -8 -77 -34 -77 l-27 0 -6 137 c-4 75 -7 171 -7 215 0 56 -4 78
-12 78 -10 0 -12 -47 -10 -210 3 -176 1 -210 -11 -210 -8 0 -21 8 -30 18 -14
15 -19 54 -26 193 -5 96 -14 185 -19 199 -5 14 -8 49 -7 78 4 75 -25 82 -112
25 -47 -30 -54 -43 -24 -43 11 0 23 -4 26 -10 9 -15 -41 -23 -64 -10 -15 7
-27 8 -40 0 -11 -5 -24 -10 -30 -10 -17 0 -64 77 -55 92 4 7 7 27 6 45 -2 18
1 33 5 33 4 0 14 4 22 9 11 7 6 21 -27 70 -48 72 -57 114 -57 266 0 180 42
258 193 356 85 56 148 78 245 89 103 11 103 11 207 0z"/>
<path d="M834 1435 c-10 -26 3 -124 20 -151 9 -13 28 -31 42 -41 34 -22 133
-43 205 -43 63 0 162 26 157 41 -2 6 -37 25 -78 43 -41 18 -93 44 -116 58 -48
31 -170 93 -202 102 -16 5 -24 3 -28 -9z"/>
<path d="M1685 1422 c-23 -9 -79 -39 -125 -67 -47 -27 -112 -62 -145 -77 -33
-15 -61 -31 -63 -36 -5 -16 87 -42 147 -42 70 0 186 24 218 46 34 21 63 89 63
147 0 45 -1 47 -27 46 -16 0 -46 -8 -68 -17z"/>
</g>
</svg>
